<?xml version="1.0" encoding="utf-8"?>
<!-- Generator: Adobe Illustrator 27.5.0, SVG Export Plug-In . SVG Version: 6.00 Build 0)  -->
<svg version="1.1" id="Layer_1" xmlns="http://www.w3.org/2000/svg" xmlns:xlink="http://www.w3.org/1999/xlink" x="0px" y="0px"
	 viewBox="0 0 4000 4000" style="enable-background:new 0 0 4000 4000;" xml:space="preserve">
<g>
	<g>
		<rect style="fill:#67E9FF;" width="4000" height="4000"/>
	</g>
	<g>
		<g style="opacity:0.15;">
			<polygon style="fill:#6B184E;" points="3259.845,1843.35 3259.845,3341.6 723.995,3341.6 723.995,1791.3 1026.945,1791.3 
				1026.945,2416.25 1129.645,2416.25 1129.645,1035 1400.995,1035 1400.995,1144.15 1489.945,1144.15 1489.945,1635.95 
				1610.645,1635.95 1610.645,601.4 2018.195,601.4 2018.195,663.9 2080.695,663.9 2080.695,1671.7 2473.845,1671.7 2473.845,1105 
				2814.845,1185 2814.845,2223.95 2912.595,2223.95 2912.595,1533.35 3000.095,1533.35 3000.095,1368.7 3056.745,1368.7 
				3056.745,1533.35 3146.995,1533.35 3146.995,1843.35 			"/>
		</g>
		<g>
			<g>
				<rect x="669.361" y="3192.042" style="fill:#758B9B;" width="95" height="154.559"/>
			</g>
			<g style="opacity:0.55;">
				<rect x="669.344" y="3197.058" style="fill:#FFFFFF;" width="95" height="25"/>
			</g>
			<g>
				<path style="fill:#6B184E;" d="M764.362,3361.75h-95c-8.364,0-15.151-6.782-15.151-15.149v-154.558
					c0-8.367,6.787-15.149,15.151-15.149h95c8.364,0,15.151,6.782,15.151,15.149V3346.6
					C779.513,3354.967,772.726,3361.75,764.362,3361.75z M684.513,3331.451h64.697v-124.26h-64.697V3331.451z"/>
			</g>
			<g>
				<path style="fill:#6B184E;" d="M716.862,3207.191c-8.364,0-15.151-6.782-15.151-15.149v-488.75
					c0-8.367,6.787-15.149,15.151-15.149c8.364,0,15.151,6.782,15.151,15.149v488.75
					C732.013,3200.409,725.226,3207.191,716.862,3207.191z"/>
			</g>
			<g>
				<rect x="655.611" y="2693.19" style="fill:#758B9B;" width="122.5" height="56.25"/>
			</g>
			<g style="opacity:0.55;">
				<rect x="749.994" y="2693.208" style="fill:#FFFFFF;" width="28.1" height="56.25"/>
			</g>
			<g>
				<path style="fill:#6B184E;" d="M778.112,2764.589h-122.5c-8.364,0-15.151-6.782-15.151-15.149v-56.25
					c0-8.367,6.787-15.149,15.151-15.149h122.5c8.364,0,15.151,6.782,15.151,15.149v56.25
					C793.263,2757.806,786.476,2764.589,778.112,2764.589z M670.763,2734.291h92.197v-25.952h-92.197V2734.291z"/>
			</g>
			<g>
				
					<ellipse transform="matrix(0.7071 -0.7071 0.7071 0.7071 -1607.5658 1259.7424)" style="fill:#F7C414;" cx="716.861" cy="2570.375" rx="122.815" ry="122.815"/>
			</g>
			<g style="opacity:0.3;">
				<path style="fill:#6B184E;" d="M825.944,2626.758c-20.35,39.45-61.6,66.45-109.1,66.45c-67.8,0-122.8-55-122.8-122.85
					c0-40.55,19.65-76.5,49.95-98.9c-8.75,16.9-13.7,36.05-13.7,56.4c0,67.85,55,122.85,122.8,122.85
					C780.344,2650.708,805.594,2641.808,825.944,2626.758z"/>
			</g>
			<g style="opacity:0.55;">
				<path style="fill:#FFFFFF;" d="M839.694,2570.358c0,37.75-17.05,71.55-43.85,94.05c12.75-19.3,20.1-42.4,20.1-67.25
					c0-22.55-6.05-43.6-16.65-61.75c-27.35,29.4-79.65-19.25-52.3-48.65c-16.25-7.95-34.55-12.4-53.9-12.4
					c-30.15,0-57.8,10.9-79.15,28.95c21.95-33.55,59.85-55.75,102.9-55.75C784.694,2447.558,839.694,2502.558,839.694,2570.358z"/>
			</g>
			<g>
				<path style="fill:#6B184E;" d="M716.862,2708.339c-76.074,0-137.969-61.889-137.969-137.964
					c0-76.074,61.894-137.964,137.969-137.964s137.964,61.89,137.964,137.964C854.826,2646.449,792.936,2708.339,716.862,2708.339z
					 M716.862,2462.709c-59.37,0-107.666,48.298-107.666,107.666s48.296,107.666,107.666,107.666
					c59.365,0,107.661-48.299,107.661-107.666S776.227,2462.709,716.862,2462.709z"/>
			</g>
		</g>
		<g>
			<g>
				<path style="fill:#FFFFFF;" d="M2663.063,1047.432v1742.877H1373.266V1047.432c0-81.927,66.353-148.401,148.34-148.401h993.177
					c11.15,0,22.118,1.212,32.601,3.696c0.485,0.061,0.969,0.182,1.455,0.303c1.03,0.242,1.999,0.485,3.03,0.788
					c2.363,0.606,4.726,1.273,7.029,2c4.666,1.454,9.211,3.09,13.634,4.969c0.061,0,0.061,0,0.061,0
					c4.363,1.818,8.604,3.878,12.725,6.12c0.182,0.121,0.424,0.243,0.606,0.364c1.818,1.03,3.636,2.06,5.393,3.09
					c0.243,0.182,0.485,0.303,0.727,0.485c1.939,1.151,3.818,2.363,5.696,3.636c1.758,1.212,3.454,2.424,5.151,3.636
					c0.485,0.364,0.969,0.727,1.454,1.091c3.515,2.666,6.908,5.514,10.18,8.483c1.757,1.576,3.454,3.212,5.151,4.908
					c1.636,1.636,3.272,3.333,4.848,5.09c0.061,0,0.121,0.061,0.182,0.182c1.454,1.636,2.909,3.272,4.302,4.969
					c0.121,0.121,0.242,0.243,0.364,0.424c1.03,1.212,2,2.424,2.908,3.697c0.667,0.848,1.333,1.696,1.939,2.545
					c2.424,3.272,4.727,6.605,6.847,10.12c0.849,1.394,1.697,2.788,2.484,4.181c0.303,0.485,0.606,0.97,0.848,1.454
					c0.909,1.697,1.818,3.393,2.666,5.09c0.909,1.757,1.758,3.515,2.606,5.333c0.121,0.182,0.182,0.363,0.242,0.545
					c0.788,1.758,1.576,3.515,2.303,5.333c1.091,2.606,2.06,5.211,2.909,7.877c1.151,3.273,2.181,6.545,3.03,9.877
					c0.545,2.06,1.03,4.06,1.454,6.12c0.485,2.06,0.849,4.181,1.212,6.242c0.364,2.121,0.727,4.181,0.969,6.302
					c0.303,2.061,0.485,4.06,0.667,6.12c0.121,0.303,0.121,0.667,0.121,1.03c0.182,1.879,0.303,3.818,0.364,5.757
					C2663.003,1043.068,2663.063,1045.25,2663.063,1047.432z"/>
			</g>
			<g style="opacity:0.2;">
				<path style="fill:#6B184E;" d="M2614.586,1047.432v1742.877h-69.565V1348.899c0-8.605-0.849-17.028-2.424-25.148
					c-1.151-5.999-2.788-11.877-4.787-17.573c-2.302-6.665-5.151-13.089-8.423-19.209c10.726-107.195,17.088-218.39,18.906-333.644
					C2587.984,967.444,2614.586,1004.59,2614.586,1047.432z"/>
			</g>
			<g>
				<path style="fill:#6B184E;" d="M2663.122,2805.458H1373.327c-8.369,0-15.151-6.782-15.151-15.149V1047.431
					c0-90.115,73.315-163.428,163.433-163.428h993.174c11.924,0,23.989,1.321,35.854,3.926l4.771,1.16
					c2.852,0.728,5.483,1.472,8.052,2.283c5.029,1.567,9.707,3.259,14.233,5.149c0.303,0.107,0.605,0.227,0.898,0.354
					c4.512,1.943,9.155,4.177,13.813,6.641c0.298,0.159,0.596,0.33,0.884,0.508c0.112,0.066,0.22,0.129,0.327,0.193
					c1.807,1.025,3.613,2.051,5.361,3.076c0.303,0.178,0.601,0.366,0.894,0.566c0.117,0.073,0.229,0.149,0.347,0.225
					c2.041,1.223,4.028,2.507,6.016,3.852c1.733,1.196,3.315,2.322,4.893,3.445l2.275,1.68c3.823,2.903,7.588,6.043,11.304,9.414
					c1.895,1.697,3.794,3.523,5.688,5.422c1.738,1.733,3.477,3.54,5.166,5.408c0.156,0.164,0.313,0.33,0.464,0.5l0,0
					c1.47,1.65,2.935,3.303,4.351,5.007c0.293,0.32,0.586,0.662,0.879,1.042c1.108,1.316,2.158,2.637,3.149,4.014
					c0.786,1.003,1.494,1.919,2.144,2.83c2.842,3.833,5.342,7.534,7.495,11.108c0.845,1.382,1.719,2.82,2.539,4.26
					c0.483,0.786,0.947,1.582,1.343,2.366c0.811,1.499,1.782,3.318,2.69,5.137c0.84,1.624,1.704,3.394,2.559,5.225
					c0.293,0.554,0.552,1.13,0.786,1.731c0.874,1.951,1.626,3.655,2.329,5.41c1.221,2.925,2.324,5.916,3.281,8.931
					c1.25,3.53,2.368,7.183,3.267,10.708c0.586,2.217,1.133,4.478,1.616,6.804c0.405,1.714,0.796,3.882,1.172,6.008l0.239,1.357
					c0.361,2.102,0.703,4.165,0.952,6.277c0.278,1.941,0.474,3.835,0.649,5.767c0.176,1.011,0.234,1.882,0.254,2.532
					c0.181,2.002,0.303,4.057,0.366,6.111c0.122,2.075,0.19,4.538,0.19,7.002v1742.878
					C2678.273,2798.676,2671.491,2805.458,2663.122,2805.458z M1388.478,2775.16H2647.97V1047.431c0-1.897-0.049-3.799-0.156-5.696
					c-0.063-1.995-0.166-3.599-0.313-5.154c-0.005-0.061-0.015-0.122-0.02-0.183c-0.049-0.322-0.088-0.647-0.117-0.974
					c-0.151-1.765-0.303-3.477-0.566-5.242c-0.024-0.168-0.044-0.337-0.063-0.505c-0.186-1.624-0.464-3.206-0.737-4.822l-0.21-1.191
					c-0.278-1.58-0.557-3.196-0.928-4.768c-0.454-2.195-0.884-3.933-1.353-5.728c-0.708-2.756-1.572-5.564-2.671-8.694
					c-0.835-2.605-1.631-4.768-2.598-7.07c-0.693-1.733-1.353-3.198-2.012-4.666c-0.059-0.137-0.132-0.3-0.2-0.474
					c-0.034-0.066-0.063-0.129-0.093-0.193c-0.757-1.623-1.514-3.196-2.324-4.768c-0.879-1.746-1.724-3.32-2.563-4.895l-0.332-0.562
					c-0.127-0.195-0.244-0.396-0.356-0.598c-0.703-1.248-1.47-2.493-2.227-3.74c-1.719-2.847-3.638-5.684-6.089-8.989
					c-0.596-0.835-1.099-1.462-1.592-2.095c-0.142-0.181-0.371-0.483-0.508-0.671c-0.654-0.923-1.362-1.794-2.109-2.671
					c-0.068-0.078-0.132-0.156-0.195-0.234c-0.112-0.127-0.225-0.256-0.327-0.381c-1.191-1.45-2.432-2.849-3.677-4.246
					c-0.132-0.137-0.259-0.273-0.386-0.415c-1.396-1.553-2.842-3.049-4.287-4.495c-1.499-1.504-2.998-2.949-4.546-4.336
					c-3.14-2.847-6.221-5.415-9.229-7.703l-1.655-1.223c-1.445-1.03-2.891-2.063-4.385-3.093c-1.523-1.03-3.154-2.085-4.834-3.081
					c-0.293-0.176-0.586-0.361-0.869-0.557c-0.068-0.044-0.132-0.086-0.2-0.129c-1.567-0.916-3.179-1.829-4.795-2.744
					c-0.151-0.085-0.303-0.173-0.449-0.266c-0.049-0.027-0.093-0.054-0.142-0.081c-3.579-1.882-7.124-3.596-10.562-5.1
					c-0.229-0.083-0.459-0.173-0.684-0.269c-3.828-1.623-7.827-3.079-12.222-4.451c-2.095-0.662-4.189-1.25-6.284-1.787
					l-4.263-1.038c-9.443-2.07-19.321-3.154-29.063-3.154h-993.174c-73.408,0-133.13,59.722-133.13,133.13V2775.16z
					 M2648.395,1039.738c0.005,0.01,0.01,0.017,0.015,0.027C2648.405,1039.757,2648.4,1039.747,2648.395,1039.738z
					 M2648.385,1039.713c0,0.002,0.005,0.005,0.005,0.007C2648.39,1039.718,2648.385,1039.716,2648.385,1039.713z M2635.49,990.858
					c0.059,0.186,0.142,0.422,0.249,0.698C2635.641,991.305,2635.553,991.061,2635.49,990.858z M2616.93,961.908
					c0,0.003,0,0.005,0.005,0.005C2616.93,961.913,2616.93,961.911,2616.93,961.908z M2616.891,961.852
					c0.01,0.015,0.02,0.027,0.029,0.041C2616.911,961.879,2616.901,961.867,2616.891,961.852z M2616.799,961.715
					c0.029,0.046,0.063,0.093,0.093,0.137C2616.862,961.805,2616.828,961.762,2616.799,961.715z M2616.769,961.669
					c0.01,0.015,0.02,0.029,0.029,0.044C2616.789,961.698,2616.779,961.683,2616.769,961.669z"/>
			</g>
			<g style="opacity:0.2;">
				<path style="fill:#6B184E;" d="M2543.809,1348.96v1441.349H1492.581V1348.899c0-7.817,1.091-15.331,3.151-22.481
					c0.545-1.757,1.091-3.575,1.697-5.272c1.212-3.515,2.727-6.847,4.423-10.059c0.848-1.636,1.757-3.212,2.666-4.787
					c0-0.061,0-0.061,0-0.061c1.394-2.242,2.908-4.423,4.423-6.484v-0.06c1.636-2.121,3.272-4.121,5.03-6.06
					c1.757-1.939,3.635-3.757,5.575-5.575c1.939-1.757,4-3.454,6.06-5.029h0.061c2.06-1.515,4.242-3.03,6.484-4.424c0,0,0,0,0.061,0
					c2.06-1.272,4.181-2.424,6.363-3.454c2.303-1.151,4.605-2.181,7.029-3.03c2.181-0.909,4.423-1.636,6.726-2.303
					c7.15-2.06,14.664-3.151,22.481-3.151h886.77c7.817,0,15.391,1.091,22.542,3.151c1.758,0.545,3.575,1.091,5.272,1.697
					c3.514,1.212,6.847,2.727,10.059,4.423c1.636,0.848,3.211,1.757,4.787,2.666c2.242,1.394,4.424,2.848,6.544,4.424
					c0.848,0.667,1.757,1.394,2.606,2.06c0.061,0.061,0.121,0.121,0.182,0.121c1.091,0.969,2.181,1.879,3.272,2.848
					c10.423,9.514,18.421,21.633,22.906,35.328C2542.416,1331.447,2543.809,1340.052,2543.809,1348.96z"/>
			</g>
			<g>
				<g>
					<polygon style="fill:#FFFFFF;" points="2049.387,1266.682 1955.36,1975.845 1951.878,2001.963 1890.161,2053.039 
						1492.582,2382.227 1492.582,2269.24 1870.04,1956.691 1961.552,1266.682 					"/>
				</g>
			</g>
			<g>
				<g>
					<path style="fill:#FFFFFF;" d="M2543.798,2520.944v87.351c-207.496-18.766-387.035-125.658-522.077-311.679
						c-109.697-150.906-151.003-299.588-152.744-305.875l83.966-22.926c0.387,1.451,39.758,141.62,140.749,279.853
						C2213.159,2411.151,2364.355,2502.952,2543.798,2520.944z"/>
				</g>
			</g>
			<g>
				<g>
					<polygon style="fill:#FFFFFF;" points="2197.197,1266.682 2098.334,2062.809 2023.172,2134.876 1958.069,2197.367 
						1492.582,2643.701 1492.582,2563.217 1929.919,2143.873 1996.183,2080.318 2043.292,2035.142 2138.673,1266.682 					"/>
				</g>
			</g>
			<g>
				<g>
					<path style="fill:#FFFFFF;" d="M2543.798,1348.906v510.372l-264.666-40.048l48.657-552.549h133.784
						C2506.942,1266.682,2543.798,1303.538,2543.798,1348.906z"/>
				</g>
			</g>
			<g>
				<g>
					<polygon style="fill:#FFFFFF;" points="2543.798,1978.747 2543.798,2258.89 2240.728,2198.818 2279.132,1946.147 					"/>
				</g>
			</g>
			<g>
				<g>
					<polygon style="fill:#FFFFFF;" points="1594.54,1266.682 1574.032,1418.266 1844.89,1457.734 1872.169,1266.682 					"/>
				</g>
			</g>
			<g>
				<g>
					<polygon style="fill:#FFFFFF;" points="1844.89,1541.892 1806.196,1811.976 1492.582,1761.287 1492.582,1506.584 					"/>
				</g>
			</g>
			<g>
				<g>
					<polygon style="fill:#FFFFFF;" points="1492.582,2170.378 1794.104,1880.174 1492.582,1833.741 					"/>
				</g>
			</g>
			<g>
				<g>
					<polygon style="fill:#FFFFFF;" points="1970.93,2732.681 1915.908,2790.309 1492.581,2790.309 1492.581,2789.945 
						1492.641,2789.885 1504.094,2777.886 1562.085,2717.168 1649.102,2626.092 1710.729,2684.931 1810.955,2580.039 					"/>
				</g>
			</g>
			<g>
				<g>
					
						<rect x="1828.982" y="2393.674" transform="matrix(0.7071 0.7071 -0.7071 0.7071 2318.3552 -650.0471)" style="fill:#FFFFFF;" width="229.745" height="159.612"/>
				</g>
			</g>
			<g>
				<g>
					
						<rect x="2058.27" y="2558.467" transform="matrix(0.7071 0.7071 -0.7071 0.7071 2483.1494 -718.3066)" style="fill:#FFFFFF;" width="100.755" height="159.612"/>
				</g>
			</g>
			<g>
				<g>
					<path style="fill:#FFFFFF;" d="M2335.054,2610.337c-0.242,4.242-0.606,8.544-1.091,12.846
						c-2.848,25.875-9.817,52.476-20.967,79.866c-11.452,28.238-27.329,57.324-47.689,87.259h-79.321
						c52.355-65.141,84.895-124.889,90.228-173.488c4.06-36.297-2.605-69.747-19.936-101.196c0-0.061,0-0.121-0.061-0.182
						c-6.12-10.968-13.452-21.694-22.178-32.237l44.781-36.964c27.572,33.51,45.205,69.625,52.537,107.922v0.061
						C2334.933,2572.403,2336.145,2591.128,2335.054,2610.337z"/>
				</g>
			</g>
			<g style="opacity:0.2;">
				<path style="fill:#6B184E;" d="M2548.778,1324.842c-2.06-0.485-4.121-0.848-6.181-1.091c-0.969-0.182-1.878-0.303-2.848-0.364
					c-2.848-0.303-5.757-0.485-8.666-0.485h-886.769c-45.326,0-82.229,36.843-82.229,82.229v1385.176h-57.991V1356.777
					c0-45.387,36.843-82.229,82.229-82.229h886.709c14.664,0,28.42,3.878,40.357,10.544c0.061,0.061,0.121,0.121,0.182,0.121
					c9.392,5.393,17.694,12.483,24.239,20.966C2542.294,1311.875,2545.991,1318.116,2548.778,1324.842z"/>
			</g>
			<g>
				<path style="fill:#6B184E;" d="M2543.81,2805.458H1492.643c-8.364,0-15.151-6.782-15.151-15.149v-1441.35
					c0-9.011,1.23-17.971,3.652-26.626l0.308-1.008c0.542-1.77,1.104-3.572,1.709-5.269c1.572-4.336,3.296-8.25,5.293-12.039
					c0.776-1.494,1.631-3.008,2.5-4.519c0.21-0.427,0.444-0.845,0.693-1.25c1.309-2.104,2.778-4.285,4.487-6.641
					c0.249-0.403,0.522-0.793,0.815-1.169c2.056-2.661,3.896-4.878,5.791-6.973c2.202-2.424,4.492-4.622,6.441-6.453
					c2.28-2.07,4.565-3.97,7.183-5.984c0.371-0.288,0.757-0.557,1.152-0.808c2.319-1.677,4.497-3.147,6.631-4.477
					c0.317-0.198,0.64-0.381,0.967-0.554c2.266-1.357,4.614-2.612,6.997-3.735c2.72-1.367,5.381-2.519,8.071-3.481
					c2.344-0.957,4.878-1.819,7.94-2.705c8.789-2.458,17.725-3.687,26.689-3.687h886.768c8.999,0,17.959,1.228,26.621,3.65
					l1.138,0.344c1.729,0.535,3.486,1.082,5.142,1.672c4.346,1.575,8.262,3.298,12.051,5.298c1.65,0.854,3.345,1.824,5.034,2.798
					c0.151,0.085,0.532,0.31,0.679,0.4c2.793,1.738,5.269,3.416,7.573,5.127l2.549,2.007c0.435,0.308,0.854,0.64,1.255,0.996
					l3.296,2.871c12.646,11.541,22.012,25.996,27.231,41.931c3.188,9.641,4.814,19.844,4.814,30.283v1441.35
					C2558.962,2798.676,2552.175,2805.458,2543.81,2805.458z M1507.795,2775.16h1020.864V1348.959c0-7.2-1.108-14.202-3.296-20.813
					c-3.604-11.021-10.078-20.998-18.73-28.896l-2.48-2.151c-0.034-0.029-0.073-0.059-0.112-0.088l-2.607-2.061
					c-1.416-1.045-3.174-2.217-4.985-3.35c-1.44-0.83-2.676-1.543-3.96-2.207c-2.646-1.396-5.308-2.568-8.252-3.633
					c-1.182-0.422-2.515-0.828-3.828-1.233l-0.767-0.237c-5.605-1.56-11.816-2.412-18.062-2.412h-886.768
					c-6.206,0-12.397,0.852-18.398,2.532c-1.987,0.574-3.613,1.125-4.99,1.699c-0.264,0.11-0.532,0.212-0.806,0.308
					c-1.592,0.559-3.267,1.286-5.269,2.285c-1.968,0.935-3.608,1.826-5.181,2.795c-0.239,0.146-0.479,0.286-0.718,0.417
					c-1.66,1.059-3.272,2.188-4.805,3.318c-0.176,0.129-0.356,0.256-0.537,0.376c-1.523,1.194-2.974,2.393-4.385,3.674
					c-1.45,1.362-3.042,2.888-4.531,4.526c-1.274,1.411-2.476,2.864-3.672,4.385c-0.117,0.181-0.244,0.356-0.371,0.53
					c-1.123,1.531-2.256,3.14-3.31,4.795c-0.063,0.117-0.132,0.234-0.195,0.349c-0.801,1.382-1.602,2.766-2.349,4.202
					c-1.387,2.632-2.559,5.298-3.623,8.24c-0.435,1.213-0.85,2.578-1.26,3.918l-0.2,0.652c-1.567,5.618-2.417,11.828-2.417,18.078
					V2775.16z"/>
			</g>
			<g>
				<path style="fill:#6B184E;" d="M2125.422,1123.795h-214.429c-9.663,0-17.5-7.834-17.5-17.5s7.837-17.5,17.5-17.5h214.429
					c9.663,0,17.5,7.834,17.5,17.5S2135.085,1123.795,2125.422,1123.795z"/>
			</g>
			<g>
				<path style="fill:#6B184E;" d="M2059.26,1030.204h-82.109c-8.286,0-15-6.716-15-15c0-8.284,6.714-15,15-15h82.109
					c8.286,0,15,6.716,15,15C2074.26,1023.488,2067.546,1030.204,2059.26,1030.204z"/>
			</g>
			<g>
				
					<ellipse transform="matrix(0.2298 -0.9732 0.9732 0.2298 669.3677 3058.3748)" style="fill:#6B184E;" cx="2266.895" cy="1106.296" rx="39.298" ry="39.298"/>
			</g>
			<g>
				<path style="fill:#4089FF;" d="M2323.331,1592.388H1713.08c-32.945,0-59.653-26.708-59.653-59.653v-44.717
					c0-32.946,26.708-59.653,59.653-59.653h610.251c32.945,0,59.653,26.708,59.653,59.653v44.717
					C2382.984,1565.681,2356.277,1592.388,2323.331,1592.388z"/>
			</g>
			<g>
				<path style="fill:#6B184E;" d="M2323.332,1609.889h-610.249c-42.544,0-77.153-34.612-77.153-77.153v-44.717
					c0-42.542,34.609-77.153,77.153-77.153h610.249c42.544,0,77.153,34.612,77.153,77.153v44.717
					C2400.485,1575.277,2365.876,1609.889,2323.332,1609.889z M1713.083,1445.866c-23.242,0-42.153,18.909-42.153,42.153v44.717
					c0,23.245,18.911,42.153,42.153,42.153h610.249c23.242,0,42.153-18.909,42.153-42.153v-44.717
					c0-23.245-18.911-42.153-42.153-42.153H1713.083z"/>
			</g>
			<g>
				<g>
					<path style="fill:#F22525;" d="M1852.919,1923.985c-18.85-24.53-48.558-40.364-81.935-40.364
						c-57.203,0-103.499,46.396-103.499,103.599v0.402c0.151,20.157,12.868,53.031,29.406,87.263
						c12.164,25.234,26.34,51.171,39.057,73.289c3.167,5.479,6.233,10.757,9.149,15.683c11.612,19.755,40.163,19.755,51.775,0
						c11.159-18.9,24.429-42.274,36.896-66.251v-0.05c0.452-0.955,0.955-1.86,1.458-2.815v-0.05
						c21.112-41.168,39.258-83.493,39.258-107.47C1874.483,1963.394,1866.491,1941.478,1852.919,1923.985z M1729.112,1997.123
						c-1.709-4.725-2.614-9.752-2.614-15.03c0-24.63,19.956-44.536,44.486-44.536s44.486,19.906,44.486,44.536
						c0,24.58-19.956,44.486-44.486,44.486c-6.937,0-13.522-1.609-19.353-4.423
						C1741.176,2017.079,1733.033,2008.081,1729.112,1997.123z"/>
				</g>
				<g>
					<path style="fill:none;stroke:#6B184E;stroke-width:25;stroke-linecap:round;stroke-linejoin:round;stroke-miterlimit:10;" d="
						M1852.919,1923.985c-18.85-24.53-48.558-40.364-81.935-40.364c-57.203,0-103.499,46.396-103.499,103.599v0.402
						c0.151,20.157,12.868,53.031,29.406,87.263c12.164,25.234,26.34,51.171,39.057,73.289c3.167,5.479,6.233,10.757,9.149,15.683
						c11.612,19.755,40.163,19.755,51.775,0c11.159-18.9,24.429-42.274,36.896-66.251v-0.05c0.452-0.955,0.955-1.86,1.458-2.815
						v-0.05c21.112-41.168,39.258-83.493,39.258-107.47C1874.483,1963.394,1866.491,1941.478,1852.919,1923.985z M1729.112,1997.123
						c-1.709-4.725-2.614-9.752-2.614-15.03c0-24.63,19.956-44.536,44.486-44.536s44.486,19.906,44.486,44.536
						c0,24.58-19.956,44.486-44.486,44.486c-6.937,0-13.522-1.609-19.353-4.423
						C1741.176,2017.079,1733.033,2008.081,1729.112,1997.123z"/>
				</g>
			</g>
			<g>
				<g>
					<path style="fill:#F7C414;" d="M2358.159,2015.83l-57.846,46.986c-14.116,11.466-34.855,9.318-46.321-4.799l-135.494-166.811
						c-11.466-14.116-9.318-34.855,4.799-46.321l57.845-46.986c14.116-11.466,34.855-9.318,46.321,4.798l135.494,166.811
						C2374.423,1983.625,2372.275,2004.364,2358.159,2015.83z"/>
				</g>
				<g>
					<path style="fill:#6B184E;" d="M2201.886,1790.529c9.575,0,19.067,4.158,25.576,12.17l135.493,166.809
						c11.47,14.116,9.321,34.856-4.795,46.321l-57.847,46.988c-6.104,4.956-13.447,7.371-20.742,7.371
						c-9.575,0-19.072-4.158-25.581-12.171l-135.493-166.809c-11.465-14.116-9.316-34.856,4.8-46.321l57.847-46.987
						C2187.248,1792.943,2194.592,1790.531,2201.886,1790.529 M2201.886,1765.529L2201.886,1765.529
						c-13.247,0.002-26.211,4.604-36.504,12.964l-57.847,46.99c-12.012,9.753-19.502,23.601-21.099,38.994
						c-1.592,15.391,2.9,30.481,12.656,42.493l135.493,166.809c11.055,13.606,27.451,21.409,44.985,21.409
						c13.247,0,26.211-4.604,36.504-12.964l57.847-46.99c12.012-9.753,19.502-23.603,21.099-38.996
						c1.592-15.391-2.905-30.483-12.661-42.493l-135.493-166.807C2235.817,1773.334,2219.421,1765.529,2201.886,1765.529
						L2201.886,1765.529z"/>
				</g>
				<g>
					<polygon style="fill:#6B184E;" points="2244.37,1890.229 2200.94,1925.506 2168.758,1901.209 2227.186,1853.75 					"/>
				</g>
				<g>
					<polygon style="fill:#6B184E;" points="2251.566,1984.957 2292.181,1951.966 2321.029,1973.152 2266.388,2017.535 					"/>
				</g>
				<g>
					<polygon style="fill:#6B184E;" points="2241.952,1854.85 2316.882,1947.099 2294.665,1946.615 2258.53,1902.128 					"/>
				</g>
				<g>
					<polygon style="fill:#6B184E;" points="2166.431,1916.193 2241.361,2008.442 2245.442,1986.597 2209.307,1942.11 					"/>
				</g>
			</g>
		</g>
		<g>
			<g>
				<rect x="1082.706" y="2896.095" style="fill:#6B184E;" width="429.448" height="315.905"/>
			</g>
			<g>
				<rect x="2763.46" y="2896.095" style="fill:#6B184E;" width="429.448" height="315.905"/>
			</g>
			<g>
				<g>
					<circle style="fill:#7C6774;" cx="1294.755" cy="3195.578" r="154.196"/>
				</g>
				<g style="opacity:0.3;">
					<path style="fill:#6B184E;" d="M1448.952,3195.578c0,85.138-69.02,154.218-154.218,154.218
						c-85.138,0-154.158-69.08-154.158-154.218c0-5.939,0.364-11.877,1.031-17.634c8.725,76.836,73.988,136.464,153.127,136.464
						c79.2,0,144.462-59.627,153.188-136.464C1448.588,3183.701,1448.952,3189.64,1448.952,3195.578z"/>
				</g>
				<g style="opacity:0.3;">
					<path style="fill:#6B184E;" d="M1448.952,3195.578c0,7.332-0.485,14.543-1.515,21.573
						c-10.483-74.958-74.837-132.585-152.703-132.585c-77.806,0-142.159,57.627-152.643,132.585
						c-1.03-7.03-1.515-14.24-1.515-21.573c0-85.138,69.02-154.218,154.158-154.218
						C1379.932,3041.36,1448.952,3110.44,1448.952,3195.578z"/>
				</g>
				<g>
					<circle style="fill:#F7C414;" cx="1294.755" cy="3195.578" r="78.758"/>
				</g>
				<g style="opacity:0.65;">
					<path style="fill:#FFFFFF;" d="M1375.63,3217.151c0,44.659-36.237,80.896-80.897,80.896c-44.66,0-80.835-36.237-80.835-80.896
						c0-6.423,0.727-12.726,2.181-18.725c1.515,42.175,36.176,75.928,78.654,75.928c42.539,0,77.2-33.752,78.715-75.928
						C1374.903,3204.425,1375.63,3210.728,1375.63,3217.151z"/>
				</g>
				<g style="opacity:0.65;">
					<path style="fill:#FFFFFF;" d="M1294.733,3116.803c-43.448,0-78.715,35.267-78.715,78.775
						c0,43.508,35.267,78.776,78.715,78.776c43.508,0,78.776-35.267,78.776-78.776
						C1373.509,3152.07,1338.242,3116.803,1294.733,3116.803z M1294.733,3268.354c-33.51,0-60.657-27.147-60.657-60.657
						c0-33.51,27.148-60.657,60.657-60.657c33.51,0,60.718,27.147,60.718,60.657
						C1355.451,3241.208,1328.243,3268.354,1294.733,3268.354z"/>
				</g>
				<g>
					<path style="fill:#6B184E;" d="M1294.757,3287.616c-50.752,0-92.041-41.289-92.041-92.039s41.289-92.036,92.041-92.036
						c50.747,0,92.036,41.287,92.036,92.036S1345.505,3287.616,1294.757,3287.616z M1294.757,3130.099
						c-36.103,0-65.478,29.375-65.478,65.478c0,36.106,29.375,65.481,65.478,65.481c36.104,0,65.474-29.375,65.474-65.481
						C1360.231,3159.474,1330.861,3130.099,1294.757,3130.099z"/>
				</g>
				<g>
					<path style="fill:#6B184E;" d="M1294.757,3364.923c-93.379,0-169.351-75.969-169.351-169.346s75.972-169.343,169.351-169.343
						c93.374,0,169.346,75.967,169.346,169.343S1388.132,3364.923,1294.757,3364.923z M1294.757,3056.532
						c-76.675,0-139.048,62.376-139.048,139.045c0,76.67,62.373,139.048,139.048,139.048c76.67,0,139.043-62.378,139.043-139.048
						C1433.801,3118.908,1371.427,3056.532,1294.757,3056.532z"/>
				</g>
			</g>
			<g>
				<g>
					<circle style="fill:#7C6774;" cx="2978.184" cy="3195.579" r="154.196"/>
				</g>
				<g style="opacity:0.3;">
					<path style="fill:#6B184E;" d="M3132.38,3195.579c0,85.138-69.02,154.218-154.218,154.218
						c-85.138,0-154.157-69.08-154.157-154.218c0-5.939,0.364-11.877,1.03-17.634c8.726,76.836,73.988,136.463,153.127,136.463
						c79.2,0,144.462-59.627,153.188-136.463C3132.016,3183.702,3132.38,3189.64,3132.38,3195.579z"/>
				</g>
				<g style="opacity:0.3;">
					<path style="fill:#6B184E;" d="M3132.38,3195.579c0,7.332-0.485,14.543-1.515,21.572
						c-10.483-74.958-74.837-132.585-152.703-132.585c-77.806,0-142.159,57.627-152.643,132.585
						c-1.03-7.029-1.515-14.24-1.515-21.572c0-85.138,69.02-154.218,154.157-154.218
						C3063.36,3041.36,3132.38,3110.44,3132.38,3195.579z"/>
				</g>
				<g>
					<circle style="fill:#F7C414;" cx="2978.184" cy="3195.579" r="78.758"/>
				</g>
				<g style="opacity:0.65;">
					<path style="fill:#FFFFFF;" d="M3059.058,3217.151c0,44.66-36.237,80.896-80.896,80.896c-44.659,0-80.835-36.237-80.835-80.896
						c0-6.423,0.727-12.725,2.181-18.724c1.515,42.175,36.176,75.927,78.654,75.927c42.539,0,77.2-33.752,78.715-75.927
						C3058.331,3204.426,3059.058,3210.728,3059.058,3217.151z"/>
				</g>
				<g style="opacity:0.65;">
					<path style="fill:#FFFFFF;" d="M2978.162,3116.803c-43.448,0-78.715,35.267-78.715,78.776s35.267,78.775,78.715,78.775
						c43.508,0,78.775-35.267,78.775-78.775S3021.67,3116.803,2978.162,3116.803z M2978.162,3268.355
						c-33.51,0-60.657-27.147-60.657-60.657c0-33.51,27.148-60.657,60.657-60.657c33.51,0,60.718,27.147,60.718,60.657
						C3038.879,3241.208,3011.672,3268.355,2978.162,3268.355z"/>
				</g>
				<g>
					<path style="fill:#6B184E;" d="M2978.185,3287.616c-50.752,0-92.041-41.289-92.041-92.039s41.289-92.036,92.041-92.036
						c50.747,0,92.036,41.287,92.036,92.036S3028.932,3287.616,2978.185,3287.616z M2978.185,3130.099
						c-36.104,0-65.479,29.375-65.479,65.478c0,36.106,29.375,65.481,65.479,65.481s65.474-29.375,65.474-65.481
						C3043.659,3159.474,3014.289,3130.099,2978.185,3130.099z"/>
				</g>
				<g>
					<path style="fill:#6B184E;" d="M2978.185,3364.923c-93.379,0-169.351-75.969-169.351-169.346s75.972-169.343,169.351-169.343
						c93.374,0,169.346,75.967,169.346,169.343S3071.559,3364.923,2978.185,3364.923z M2978.185,3056.532
						c-76.675,0-139.048,62.376-139.048,139.045c0,76.67,62.373,139.048,139.048,139.048c76.67,0,139.043-62.378,139.043-139.048
						C3117.228,3118.908,3054.855,3056.532,2978.185,3056.532z"/>
				</g>
			</g>
			<g>
				<path style="fill:#B0D8FD;" d="M1082.706,3208.425v27.269c0,16.725-13.573,30.298-30.298,30.298H913.157
					c-16.725,0-30.298-13.573-30.298-30.298v-27.269c0-16.725,13.574-30.298,30.298-30.298h139.251
					C1069.133,3178.126,1082.706,3191.7,1082.706,3208.425z"/>
			</g>
			<g style="opacity:0.3;">
				<path style="fill:#6B184E;" d="M963.937,3265.991h-50.78c-16.725,0-30.298-13.573-30.298-30.298v-27.269
					c0-16.725,13.574-30.298,30.298-30.298h50.78c-16.725,0-30.298,13.574-30.298,30.298v27.269
					C933.639,3252.418,947.212,3265.991,963.937,3265.991z"/>
			</g>
			<g>
				<path style="fill:#B0D8FD;" d="M3489.115,3208.425v27.269c0,16.725-13.513,30.298-30.298,30.298h-166.216
					c-16.725,0-30.298-13.573-30.298-30.298v-27.269c0-16.725,13.574-30.298,30.298-30.298h166.216
					C3475.602,3178.126,3489.115,3191.7,3489.115,3208.425z"/>
			</g>
			<g style="opacity:0.3;">
				<path style="fill:#6B184E;" d="M3489.115,3208.425v27.269c0,16.725-13.513,30.298-30.298,30.298h-46.962
					c16.785,0,30.298-13.573,30.298-30.298v-27.269c0-16.725-13.513-30.298-30.298-30.298h46.962
					C3475.602,3178.126,3489.115,3191.7,3489.115,3208.425z"/>
			</g>
			<g>
				<path style="fill:#6B184E;" d="M1052.409,3281.139H913.156c-25.059,0-45.449-20.388-45.449-45.447v-27.268
					c0-25.059,20.391-45.447,45.449-45.447h139.253c25.059,0,45.449,20.388,45.449,45.447v27.268
					C1097.858,3260.751,1077.468,3281.139,1052.409,3281.139z M913.156,3193.275c-8.354,0-15.146,6.797-15.146,15.149v27.268
					c0,8.352,6.792,15.149,15.146,15.149h139.253c8.354,0,15.146-6.797,15.146-15.149v-27.268c0-8.352-6.792-15.149-15.146-15.149
					H913.156z"/>
			</g>
			<g>
				<path style="fill:#6B184E;" d="M3458.815,3281.139h-166.216c-25.059,0-45.449-20.388-45.449-45.447v-27.268
					c0-25.059,20.391-45.447,45.449-45.447h166.216c25.059,0,45.449,20.388,45.449,45.447v27.268
					C3504.264,3260.751,3483.874,3281.139,3458.815,3281.139z M3292.599,3193.275c-8.354,0-15.146,6.797-15.146,15.149v27.268
					c0,8.352,6.792,15.149,15.146,15.149h166.216c8.354,0,15.146-6.797,15.146-15.149v-27.268c0-8.352-6.792-15.149-15.146-15.149
					H3292.599z"/>
			</g>
			<g>
				<path style="fill:#F7C414;" d="M3394.827,2886.172l-0.667,7.514l-10.483,116.285l-4.787,53.022l-10.422,115.133h-75.867
					c-16.725,0-30.298,13.574-30.298,30.298v27.269c0,16.725,13.574,30.298,30.298,30.298h-78.897
					c-26.723,0-48.417-21.694-48.417-48.417v-41.085c0-42.963-14.906-82.411-39.812-113.497
					c-4.181-5.272-8.665-10.302-13.452-15.028c-33.874-33.873-80.957-54.415-132.888-53.203
					c-55.264,1.272-103.984,27.813-136.281,68.232c-25.754,32.177-41.146,73.14-41.146,117.193v37.328
					c0,26.784-21.694,48.477-48.477,48.477H1529.787c-29.814,0-53.992-24.178-53.992-53.992v-35.51
					c0-42.963-14.907-82.411-39.873-113.497c-4.12-5.272-8.665-10.302-13.392-15.028c-33.874-33.873-80.957-54.415-132.888-53.203
					c-55.264,1.272-103.984,27.813-136.342,68.232c-25.753,32.177-41.085,73.14-41.085,117.193v9.817
					c0,16.301-13.21,29.51-29.51,29.51v-11.089c0-16.725-13.573-30.298-30.298-30.298h-77.624l-7.211-115.133l-3.03-48.477
					l-7.575-120.829l-1.394-22.663v-0.424c-0.061-1.454-0.121-2.969-0.121-4.424c0-20.118,7.877-38.539,20.845-52.174
					c13.755-14.543,33.267-23.693,55.082-23.693h535.128c26.359,0,51.446-11.392,68.777-31.268l265.352-303.649
					c31.632-36.176,77.321-56.961,125.374-56.961h635.779c34.237,0,65.929,17.937,83.563,47.266l171.488,285.409
					c21.33,35.449,59.748,57.203,101.135,57.203h287.409c24.602,0,46.72,9.817,62.838,25.693
					c10.544,10.18,18.543,23.027,22.967,37.388C3394.585,2862.297,3395.917,2874.053,3394.827,2886.172z"/>
			</g>
			<g style="opacity:0.65;">
				<path style="fill:#FFFFFF;" d="M3391.736,2853.329c-16.118-23.632-43.205-39.266-74.231-39.266h-287.409
					c-41.387,0-79.805-21.754-101.136-57.203l-171.488-285.409c-17.634-29.329-49.326-47.266-83.563-47.266h-635.779
					c-48.053,0-93.743,20.785-125.374,56.961l-265.352,303.649c-17.331,19.876-42.418,31.268-68.777,31.268H1043.5
					c-43.69,0-78.291,36.722-75.806,80.291v0.424l8.968,143.493l8.605,137.857h-10.483l-10.241-163.611l-8.968-143.492v-0.424
					c-2.485-43.569,32.116-80.291,75.806-80.291h535.128c26.359,0,51.446-11.392,68.777-31.268l265.352-303.649
					c31.632-36.176,77.321-56.961,125.374-56.961h635.779c34.237,0,65.929,17.937,83.563,47.266l171.488,285.409
					c21.33,35.449,59.748,57.203,101.135,57.203h287.409c40.6,0,74.473,26.783,85.805,63.081
					C3391.373,2852.056,3391.555,2852.662,3391.736,2853.329z"/>
			</g>
			<g>
				<path style="fill:#6B184E;" d="M3292.599,3281.139h-78.896c-35.049,0-63.569-28.516-63.569-63.564v-41.084
					c0-44.546-17.334-86.384-48.813-117.803c-32.534-32.537-75.811-49.888-121.836-48.782
					c-89.673,2.08-162.627,78.469-162.627,170.281v37.326c0,35.083-28.545,63.625-63.628,63.625H1529.787
					c-38.125,0-69.141-31.016-69.141-69.141v-35.508c0-44.543-17.334-86.379-48.818-117.803
					c-32.529-32.537-75.801-49.802-121.831-48.782c-89.673,2.08-162.627,78.469-162.627,170.281v9.817
					c0,24.624-20.039,44.658-44.663,44.658c-8.369,0-15.151-6.782-15.151-15.149v-11.089c0-8.352-6.792-15.149-15.146-15.149
					h-77.627c-7.998,0-14.619-6.218-15.122-14.202l-19.209-307.104c-0.02-0.315-0.029-0.63-0.029-0.945
					c-1.416-24.864,7.368-48.936,24.761-67.344c17.373-18.391,40.884-28.521,66.201-28.521h535.127
					c22.002,0,42.91-9.504,57.354-26.077l265.366-303.66c34.531-39.492,84.385-62.141,136.782-62.141h635.776
					c39.302,0,76.299,20.925,96.548,54.609l171.489,285.41c18.501,30.752,52.28,49.858,88.149,49.858h287.412
					c46.206,0,86.499,29.624,100.269,73.716c4.077,13.111,5.508,26.785,4.258,40.654l-26.357,291.961
					c-0.708,7.805-7.251,13.784-15.088,13.784h-75.869c-8.354,0-15.146,6.797-15.146,15.149v27.268
					c0,8.352,6.792,15.149,15.146,15.149c8.364,0,15.151,6.782,15.151,15.149S3300.964,3281.139,3292.599,3281.139z
					 M2983.556,2979.562c52.607,0,101.87,20.378,139.18,57.69c37.202,37.136,57.7,86.589,57.7,139.238v41.084
					c0,18.342,14.922,33.267,33.267,33.267h36.045c-1.68-4.741-2.598-9.839-2.598-15.149v-27.268
					c0-25.059,20.391-45.447,45.449-45.447h62.026l25.112-278.164c0,0,0,0,0-0.002c0.894-9.9-0.117-19.629-3.008-28.918
					c-9.79-31.357-38.462-52.434-71.343-52.434h-287.412c-46.436,0-90.161-24.731-114.111-64.543L2732.37,2453.5
					c-14.805-24.621-41.851-39.919-70.581-39.919h-635.776c-43.657,0-85.2,18.875-113.97,51.782l-265.352,303.645
					c-20.19,23.159-49.419,36.45-80.181,36.45h-535.127c-16.895,0-32.583,6.758-44.175,19.028
					c-11.611,12.288-17.471,28.359-16.509,45.251c0.015,0.271,0.02,0.54,0.02,0.808l18.291,292.432h63.398
					c20.566,0,37.988,13.733,43.574,32.51c0.698-1.69,1.084-3.543,1.084-5.483v-9.817c0-108.137,86.235-198.111,192.227-200.569
					c54.312-1.333,105.513,19.194,143.95,57.634c37.207,37.139,57.705,86.592,57.705,139.238v35.508
					c0,21.418,17.422,38.843,38.838,38.843h1223.443c18.379,0,33.325-14.951,33.325-33.328v-37.326
					c0-108.137,86.235-198.111,192.227-200.569C2980.373,2979.579,2981.969,2979.562,2983.556,2979.562z"/>
			</g>
			<g style="opacity:0.65;">
				<path style="fill:#FFFFFF;" d="M2201.378,2453.998h-183.607c-34.661,0-67.141,16.846-87.077,45.145L1740.603,2769.1
					c-15.331,21.693-23.511,47.568-23.511,74.109v295.227c0,13.755,5.393,26.299,14.119,35.57
					c-1.757-5.212-2.727-10.786-2.727-16.604v-295.287c0-26.541,8.12-52.416,23.511-74.109l190.031-269.897
					c19.936-28.359,52.477-45.205,87.077-45.205h183.607c12.483,0,23.693,5.03,31.813,13.149
					C2239.009,2467.511,2221.799,2453.998,2201.378,2453.998z"/>
			</g>
			<g>
				<path style="fill:#F7C414;" d="M2770.198,2799.762l-128.889-309.224c-9.271-22.117-30.905-36.54-54.9-36.54h-212.997
					c-32.843,0-59.445,26.602-59.445,59.445v624.993c0,28.601,23.208,51.81,51.81,51.81h288.621
					c24.178,0,45.145-16.725,50.477-40.297l69.262-304.195C2777.652,2830.363,2776.258,2814.305,2770.198,2799.762z
					 M2672.819,2793.52h-298.922c-9.696,0-17.512-7.817-17.512-17.512v-256.142c0-12.968,10.483-23.451,23.451-23.451h202.271
					c9.453,0,17.997,5.696,21.633,14.422l99.136,237.659C2711.783,2769.888,2696.088,2793.52,2672.819,2793.52z"/>
			</g>
			<g style="opacity:0.65;">
				<path style="fill:#FFFFFF;" d="M2586.409,2453.998h-212.997c-32.843,0-59.445,26.602-59.445,59.445v624.993
					c0,18.724,9.938,35.146,24.784,44.235c-5.454-8.181-8.605-18.058-8.605-28.602v-624.992c0-32.844,26.602-59.446,59.445-59.446
					h212.997c11.877,0,23.087,3.575,32.601,9.756C2624.16,2463.693,2606.103,2453.998,2586.409,2453.998z"/>
			</g>
			<g>
				<path style="fill:#01EFFF;" d="M2203.984,2512.594v264.686c0,7.453-5.029,13.755-11.876,15.634
					c-1.394,0.424-2.848,0.606-4.363,0.606h-305.588c-44.963,0-71.201-50.659-45.326-87.38l22.421-31.571l42.478-59.809
					l36.964-51.931l28.541-40.236c11.695-16.422,30.541-26.178,50.719-26.178h169.791
					C2196.713,2496.416,2203.984,2503.687,2203.984,2512.594z"/>
			</g>
			<g style="opacity:0.55;">
				<polygon style="fill:#FFFFFF;" points="2004.925,2793.52 1927.967,2793.52 1859.251,2674.569 1901.729,2614.76 				"/>
			</g>
			<g style="opacity:0.55;">
				<path style="fill:#FFFFFF;" d="M2192.107,2792.914c-1.394,0.424-2.848,0.606-4.363,0.606h-115.86l-133.191-230.691
					l28.541-40.236c11.695-16.422,30.541-26.178,50.719-26.178h2.969L2192.107,2792.914z"/>
			</g>
			<g style="opacity:0.65;">
				<path style="fill:#FFFFFF;" d="M2203.984,2777.28v20.481c0,8.968-7.271,16.24-16.24,16.24h-305.588
					c-36.54,0-60.718-33.449-54.598-65.687c4.787,24.542,25.875,45.205,54.598,45.205h305.588
					C2196.713,2793.52,2203.984,2786.248,2203.984,2777.28z"/>
			</g>
			<g style="opacity:0.3;">
				<path style="fill:#6B184E;" d="M2203.984,2512.594v9.877c-1.878-0.788-3.938-1.212-6.12-1.212h-169.792
					c-20.179,0-39.024,9.756-50.719,26.177l-130.404,183.547c-8.786,12.483-11.574,26.602-9.635,39.751
					c-13.028-18.058-15.271-43.629-0.485-64.596l130.404-183.547c11.695-16.422,30.541-26.178,50.719-26.178h169.791
					C2196.713,2496.416,2203.984,2503.687,2203.984,2512.594z"/>
			</g>
			<g>
				<path style="fill:#01EFFF;" d="M2672.819,2793.52h-298.922c-9.696,0-17.512-7.817-17.512-17.512v-256.142
					c0-12.968,10.483-23.451,23.451-23.451h202.271c3.878,0,7.635,0.969,10.968,2.727c4.727,2.484,8.544,6.544,10.665,11.695
					l10.18,24.42l88.956,213.239C2711.783,2769.888,2696.088,2793.52,2672.819,2793.52z"/>
			</g>
			<g style="opacity:0.55;">
				<path style="fill:#FFFFFF;" d="M2575.501,2793.52h-76.957l-142.159-246.204v-27.45c0-12.968,10.483-23.451,23.451-23.451h24.117
					L2575.501,2793.52z"/>
			</g>
			<g style="opacity:0.55;">
				<path style="fill:#FFFFFF;" d="M2672.819,2793.52H2642.4l-171.488-297.104h111.194c3.878,0,7.635,0.969,10.968,2.727
					l20.845,36.115l88.956,213.239C2711.783,2769.888,2696.088,2793.52,2672.819,2793.52z"/>
			</g>
			<g style="opacity:0.65;">
				<path style="fill:#FFFFFF;" d="M2672.819,2816.244h-298.922c-9.696,0-17.512-7.817-17.512-17.512v-22.724
					c0,9.695,7.817,17.512,17.512,17.512h298.922c14.422,0,25.996-9.09,30.48-21.148
					C2711.238,2793.459,2695.664,2816.244,2672.819,2816.244z"/>
			</g>
			<g style="opacity:0.3;">
				<path style="fill:#6B184E;" d="M2609.738,2525.26c-1.151-0.182-2.242-0.243-3.393-0.243h-202.271
					c-12.968,0-23.451,10.483-23.451,23.451v245.052h-6.726c-9.696,0-17.512-7.817-17.512-17.512v-256.142
					c0-12.968,10.483-23.451,23.451-23.451h202.271c9.453,0,17.997,5.696,21.633,14.422L2609.738,2525.26z"/>
			</g>
			<g>
				<path style="fill:#EA3442;" d="M3433.488,2893.686v73.988c0,23.33-18.967,42.297-42.296,42.297h-7.514l11.15-123.799
					c1.091-12.119-0.242-23.875-3.635-34.783C3414.521,2851.39,3433.488,2870.356,3433.488,2893.686z"/>
			</g>
			<g>
				<path style="fill:#6B184E;" d="M3391.193,3025.121h-7.515c-4.253,0-8.311-1.79-11.182-4.929s-4.287-7.341-3.906-11.577
					l11.147-123.799c0.894-9.905-0.117-19.634-3.008-28.924c-1.431-4.6-0.591-9.604,2.261-13.484
					c2.856-3.877,7.388-6.167,12.202-6.167c31.675,0,57.446,25.769,57.446,57.444v73.99
					C3448.639,2999.352,3422.868,3025.121,3391.193,3025.121z M3410.295,2874.418c0.142,4.343,0.015,8.721-0.381,13.118
					l-9.517,105.681c10.454-3.779,17.939-13.801,17.939-25.542v-73.99C3418.337,2886.158,3415.26,2879.34,3410.295,2874.418z"/>
			</g>
			<g>
				<path style="fill:#FFFFFF;" d="M964.543,3014.516h-8.968c-19.512,0-35.328-15.815-35.328-35.328v-73.261
					c0-19.512,15.816-35.327,35.328-35.327v0.424L964.543,3014.516z"/>
			</g>
			<g>
				<path style="fill:#6B184E;" d="M964.543,3029.664h-8.97c-27.832,0-50.479-22.644-50.479-50.476v-73.262
					c0-27.832,22.646-50.476,50.479-50.476c8.35,0,15.122,6.755,15.151,15.1l8.936,143.02c0.264,4.172-1.211,8.269-4.077,11.318
					C972.721,3027.936,968.722,3029.664,964.543,3029.664z M941.662,2891.322c-3.857,3.677-6.265,8.865-6.265,14.604v73.262
					c0,8.577,5.376,15.92,12.935,18.835L941.662,2891.322z M955.573,2871.024h0.049H955.573z"/>
			</g>
			<g style="opacity:0.3;">
				<path style="fill:#6B184E;" d="M1109.005,3062.993c-15.755,25.632-26.178,54.294-30.662,84.047
					c-7.999-3.393-16.725-5.272-25.935-5.272h-43.448l-4.908-78.775H1109.005z"/>
			</g>
			<g style="opacity:0.3;">
				<path style="fill:#6B184E;" d="M2798.557,3062.993c-21.572,35.085-33.207,75.806-33.207,117.193v37.328
					c0,6.666-5.453,12.119-12.119,12.119H1529.787c-9.696,0-17.634-7.938-17.634-17.634v-35.51
					c0-40.115-11.21-79.563-31.934-113.497h236.872v75.443c0,28.601,23.209,51.81,51.81,51.81h33.571
					c-28.602,0-51.81-23.208-51.81-51.81v-75.443h563.305v75.443c0,28.601,23.208,51.81,51.81,51.81h24.239
					c-28.601,0-51.81-23.208-51.81-51.81v-75.443H2798.557z"/>
			</g>
			<g style="opacity:0.3;">
				<path style="fill:#6B184E;" d="M3342.351,3062.993l-7.09,78.775h-42.66c-36.782,0-66.656,29.874-66.656,66.656v21.209h-12.24
					c-6.666,0-12.059-5.393-12.059-12.059v-41.085c0-40.054-11.15-79.502-31.874-113.497H3342.351z"/>
			</g>
			<g style="opacity:0.3;">
				<path style="fill:#FFFFFF;" d="M1676.603,2868.674c0.572,7.787-2.361,14.899-7.383,19.922
					c-4.605,4.666-10.968,7.514-17.997,7.514h-240.015c-10.525,0-16.707,11.52-11.196,20.486c5.072,8.252,7.855,17.248,7.855,26.658
					c0,40.115-6.787-10.12-113.134-12.543c-89.562-2-113.073,52.658-113.073,12.543c0-9.413,2.785-18.412,7.852-26.667
					c5.503-8.966-0.682-20.477-11.202-20.477h-142.465c-13.561,0-25.64-10.063-26.633-23.588
					c-0.572-7.787,2.361-14.899,7.383-19.921c4.605-4.666,10.968-7.514,17.997-7.514h615.376
					C1663.53,2845.088,1675.609,2855.15,1676.603,2868.674z"/>
			</g>
			<g style="opacity:0.3;">
				<path style="fill:#FFFFFF;" d="M3349.672,2868.674c0.572,7.787-2.36,14.9-7.382,19.922c-4.605,4.666-10.968,7.514-17.997,7.514
					h-222.612c-13.471,0-22.891,13.959-17.171,26.155c3.117,6.645,4.79,13.692,4.79,20.989c0,40.115-6.787-10.12-113.134-12.543
					c-89.562-2-113.073,52.658-113.073,12.543c0-7.297,1.673-14.344,4.79-20.989c5.72-12.197-3.699-26.155-17.171-26.155l0,0
					c-12.547,0-24.108-8.506-26.292-20.862c-1.563-8.841,1.439-17.044,7.042-22.647c4.605-4.666,10.968-7.514,17.997-7.514h473.581
					C3336.6,2845.088,3348.678,2855.15,3349.672,2868.674z"/>
			</g>
			<g style="opacity:0.3;">
				<path style="fill:#FFFFFF;" d="M2714.161,2896.095H2381.88c-14.081,0-25.496-11.415-25.496-25.496l0,0
					c0-14.081,11.415-25.496,25.496-25.496h332.281c14.081,0,25.496,11.415,25.496,25.496l0,0
					C2739.657,2884.68,2728.242,2896.095,2714.161,2896.095z"/>
			</g>
			<g style="opacity:0.3;">
				<path style="fill:#FFFFFF;" d="M2168.288,2896.095h-386.677c-14.081,0-25.496-11.415-25.496-25.496l0,0
					c0-14.081,11.415-25.496,25.496-25.496h386.677c14.081,0,25.496,11.415,25.496,25.496l0,0
					C2193.784,2884.68,2182.369,2896.095,2168.288,2896.095z"/>
			</g>
			<g>
				<path style="fill:#6B184E;" d="M2157.446,2861.207c0,2.666-2.181,4.848-4.908,4.848h-73.079c-2.666,0-4.848-2.181-4.848-4.848
					c0-6.787,2.727-12.847,7.15-17.27c4.423-4.423,10.544-7.15,17.27-7.15h33.994
					C2146.478,2836.786,2157.446,2847.693,2157.446,2861.207z"/>
			</g>
			<g>
				<path style="fill:#6B184E;" d="M2705.406,2861.207c0,2.666-2.181,4.848-4.908,4.848h-73.079c-2.666,0-4.848-2.181-4.848-4.848
					c0-6.787,2.727-12.847,7.15-17.27c4.423-4.423,10.544-7.15,17.27-7.15h33.994
					C2694.438,2836.786,2705.406,2847.693,2705.406,2861.207z"/>
			</g>
			<g>
				
					<path style="fill:none;stroke:#6B184E;stroke-width:24.2386;stroke-linecap:round;stroke-linejoin:round;stroke-miterlimit:10;" d="
					M2246.402,3138.436c0,28.601-23.208,51.81-51.81,51.81h-425.69c-28.601,0-51.81-23.208-51.81-51.81v-295.227
					c0-26.541,8.18-52.416,23.511-74.109l190.091-269.958c19.936-28.299,52.416-45.145,87.077-45.145h183.607
					c24.905,0,45.023,20.118,45.023,44.963V3138.436z M2704.875,3149.949c-5.333,23.572-26.299,40.297-50.477,40.297h-288.621
					c-28.614,0-51.81-23.196-51.81-51.81v-624.993c0-32.831,26.615-59.445,59.445-59.445h212.997c23.996,0,45.629,14.422,54.9,36.54
					l129.888,311.594c5.42,13.003,6.652,27.372,3.524,41.107L2704.875,3149.949z"/>
			</g>
			<g>
				<path style="fill:#6B184E;" d="M2187.746,2805.638h-305.591c-25.337,0-48.32-13.967-59.98-36.45
					c-11.665-22.488-9.844-49.321,4.746-70.029l130.435-183.584c13.945-19.59,36.597-31.279,60.596-31.279h169.795
					c15.64,0,28.359,12.696,28.359,28.298v264.685C2216.105,2792.916,2203.385,2805.638,2187.746,2805.638z M2017.951,2508.534
					c-16.172,0-31.44,7.883-40.845,21.089l-130.4,183.535c-9.468,13.442-10.605,30.232-3.013,44.871
					c7.588,14.634,21.968,23.371,38.462,23.371h305.591c2.271,0,4.121-1.848,4.121-4.121v-264.685c0-2.239-1.851-4.06-4.121-4.06
					H2017.951z"/>
			</g>
			<g>
				<path style="fill:#6B184E;" d="M2672.819,2805.638h-298.921c-16.338,0-29.634-13.293-29.634-29.631v-256.14
					c0-19.614,15.957-35.571,35.571-35.571h202.271c14.404,0,27.285,8.589,32.817,21.882l99.141,237.654
					c5.752,13.811,4.229,29.485-4.072,41.929C2701.691,2798.207,2687.795,2805.638,2672.819,2805.638z M2379.836,2508.534
					c-6.25,0-11.333,5.083-11.333,11.333v256.14c0,3.025,2.368,5.393,5.396,5.393h298.921c6.958,0,13.159-3.313,17.007-9.087
					c3.853-5.771,4.531-12.756,1.865-19.158l-99.141-237.654c-1.763-4.236-5.859-6.968-10.444-6.968H2379.836z"/>
			</g>
			<g>
				<path style="fill:#FEA402;" d="M2275.637,2299.477h-58.471c-33.214,0-60.14,26.925-60.14,60.139v38.814h178.75v-38.814
					C2335.776,2326.402,2308.851,2299.477,2275.637,2299.477z"/>
			</g>
			<g style="opacity:0.65;">
				<path style="fill:#FFFFFF;" d="M2332.631,2340.379c-10.665-9.696-24.845-15.634-40.418-15.634h-58.475
					c-33.207,0-60.172,26.905-60.172,60.112v13.573h-16.543v-38.842c0-33.207,26.905-60.112,60.173-60.112h58.415
					C2302.15,2299.477,2324.632,2316.565,2332.631,2340.379z"/>
			</g>
			<g>
				<path style="fill:#6B184E;" d="M2335.778,2413.58h-178.75c-8.364,0-15.151-6.782-15.151-15.149v-38.816
					c0-41.514,33.774-75.288,75.288-75.288h58.472c41.514,0,75.293,33.774,75.293,75.288v38.816
					C2350.929,2406.798,2344.142,2413.58,2335.778,2413.58z M2172.179,2383.283h148.447v-23.667c0-24.807-20.181-44.99-44.99-44.99
					h-58.472c-24.805,0-44.985,20.183-44.985,44.99V2383.283z"/>
			</g>
			<g>
				<g>
					<rect x="1784.64" y="3039.764" style="fill:#6B184E;" width="75.182" height="46.457"/>
				</g>
				<g>
					<rect x="1935.003" y="3039.764" style="fill:#6B184E;" width="75.182" height="46.457"/>
				</g>
				<g>
					<rect x="2085.366" y="3039.764" style="fill:#6B184E;" width="75.182" height="46.457"/>
				</g>
				<g>
					<rect x="1859.821" y="3086.222" style="fill:#6B184E;" width="75.182" height="46.457"/>
				</g>
				<g>
					<rect x="2010.184" y="3086.222" style="fill:#6B184E;" width="75.182" height="46.457"/>
				</g>
			</g>
			<g>
				<g>
					<rect x="2365.399" y="3039.764" style="fill:#6B184E;" width="75.182" height="46.457"/>
				</g>
				<g>
					<rect x="2515.762" y="3039.764" style="fill:#6B184E;" width="75.182" height="46.457"/>
				</g>
				<g>
					<rect x="2440.581" y="3086.222" style="fill:#6B184E;" width="75.182" height="46.457"/>
				</g>
				<g>
					<rect x="2590.944" y="3086.222" style="fill:#6B184E;" width="75.182" height="46.457"/>
				</g>
			</g>
		</g>
		<g>
			<path style="fill:#6B184E;" d="M510.772,3344.724c62.808-7.842,125.618-9.719,188.428-10.684
				c31.404-0.53,62.808-0.635,94.214-0.498c31.404-0.039,62.81,0.322,94.214,0.579c62.81,0.461,125.618,0.579,188.428,0.505h188.428
				h753.713h753.711h376.858l94.214-0.029l47.107-0.364l47.107-0.627c31.404-0.3,62.808,0.12,94.214,1.509
				c31.404,1.523,62.81,3.911,94.214,9.609c2.788,0.508,4.639,3.179,4.133,5.967c-0.393,2.161-2.095,3.757-4.133,4.133
				c-31.404,5.698-62.81,8.086-94.214,9.612c-31.406,1.387-62.81,1.807-94.214,1.506l-47.107-0.627l-47.107-0.361l-94.214-0.029
				h-376.858h-753.711h-753.713h-188.428c-62.81-0.076-125.618,0.044-188.428,0.503c-31.404,0.259-62.81,0.618-94.214,0.579
				c-31.406,0.137-62.81,0.034-94.214-0.498c-62.81-0.964-125.62-2.842-188.428-10.684c-2.791-0.349-4.768-2.891-4.419-5.681
				C506.646,3346.785,508.516,3345.007,510.772,3344.724z"/>
		</g>
		<g style="opacity:0.3;">
			<path style="fill:#6B184E;" d="M3682.841,3390.202c0,44.09-744.467,79.801-1662.841,79.801s-1662.841-35.711-1662.841-79.801
				c0-13.488,69.328-26.157,191.736-37.244h2942.208C3613.513,3364.045,3682.841,3376.715,3682.841,3390.202z"/>
		</g>
		<g>
			<g>
				<path style="fill:#FFFFFF;" d="M3378.706,1054.916c0.082,3.685-0.164,7.369-0.696,10.89
					c-1.76,11.995-12.036,20.879-24.154,20.879h-527.504c-12.036,0-22.312-8.802-24.114-20.715
					c-0.737-4.708-0.941-9.58-0.532-14.615c2.21-29.435,25.341-53.876,54.613-57.684c18.136-2.334,35.085,3.029,47.899,13.305
					c-3.439-13.346-5.035-27.47-4.585-42.004c2.456-79.013,67.55-143.329,146.604-144.966c31.769-0.655,61.327,8.597,85.85,24.891
					c32.833,21.739,56.537,56.128,64.357,96.167c2.457-0.205,4.954-0.328,7.492-0.328c38.606,0,71.48,24.4,84.049,58.666
					c9.211-4.462,19.651-6.714,30.705-6.182C3351.358,994.858,3377.928,1022.206,3378.706,1054.916z"/>
			</g>
			<g>
				<path style="fill:#6B184E;" d="M3353.854,1098.969h-527.5c-18.286,0-33.54-13.098-36.279-31.143
					c-0.864-5.703-1.074-11.553-0.63-17.388c2.695-35.398,30.161-64.39,65.313-68.936c11.411-1.475,22.666-0.435,33.164,2.944
					c-0.586-6.548-0.776-13.174-0.571-19.841c2.681-86.199,72.358-155.112,158.628-156.89c1.138-0.022,2.28-0.034,3.418-0.034
					c74.111,0,138.179,49.785,156.768,120.796c37.48,0.825,71.465,22.432,88.369,55.332c7.998-2.292,16.367-3.276,24.78-2.856
					c39.287,1.953,70.762,34.312,71.655,73.665c0,0.002,0,0.002,0,0.005c0.098,4.377-0.176,8.752-0.806,13
					C3387.507,1085.495,3371.896,1098.969,3353.854,1098.969z M2864.772,1005.419c-2.271,0-4.561,0.146-6.86,0.444
					c-23.667,3.062-42.158,22.59-43.975,46.438c-0.303,3.992-0.161,7.978,0.425,11.848c0.889,5.845,6.04,10.254,11.992,10.254h527.5
					c5.967,0,11.133-4.468,12.012-10.391c0.425-2.873,0.61-5.847,0.542-8.838l0,0c-0.591-26.101-22.266-48.394-48.315-49.69
					c-8.706-0.427-17.036,1.243-24.766,4.978c-3.125,1.501-6.743,1.626-9.951,0.325c-3.213-1.301-5.728-3.899-6.919-7.156
					c-11.108-30.273-40.249-50.613-72.52-50.613c-2.192,0-4.351,0.107-6.475,0.283c-6.23,0.544-11.875-3.74-13.076-9.893
					c-12.808-65.779-70.718-112.717-137.9-111.133c-71.978,1.482-132.349,61.187-134.585,133.091
					c-0.41,13.193,1.006,26.16,4.204,38.535c1.323,5.125-0.781,10.52-5.225,13.391c-4.443,2.869-10.229,2.573-14.355-0.742
					C2887.458,1009.266,2876.379,1005.419,2864.772,1005.419z"/>
			</g>
			<g style="opacity:0.3;">
				<path style="fill:#6B184E;" d="M3344.808,1086.685h-384.052c62.556-4.298,110.782-19.896,142.142-48.841
					c33.079-30.5,47.449-75.779,40.08-138.253c10.562,14.042,17.931,30.377,21.329,47.735l5.609,28.821l29.272-2.456
					c1.719-0.123,3.275-0.205,4.749-0.205c23.704,0,45.156,14.943,53.303,37.214l12.446,33.939l32.588-15.762
					c4.094-1.965,8.515-2.989,13.223-2.989c0.532,0,1.065,0,1.638,0.041C3331.216,1026.627,3357.131,1047.588,3344.808,1086.685z"/>
			</g>
		</g>
		<g>
			<g>
				<path style="fill:#FFFFFF;" d="M1173.51,1664.572c0.082,3.685-0.164,7.369-0.696,10.89
					c-1.76,11.995-12.036,20.879-24.154,20.879H621.156c-12.036,0-22.312-8.802-24.113-20.715c-0.737-4.708-0.942-9.58-0.532-14.615
					c2.211-29.436,25.341-53.876,54.613-57.684c18.136-2.334,35.085,3.029,47.899,13.305c-3.439-13.346-5.036-27.47-4.585-42.004
					c2.456-79.013,67.55-143.329,146.604-144.966c31.769-0.655,61.327,8.597,85.85,24.891
					c32.833,21.739,56.537,56.128,64.357,96.167c2.456-0.205,4.954-0.328,7.492-0.328c38.606,0,71.48,24.4,84.049,58.666
					c9.211-4.462,19.651-6.714,30.705-6.182C1146.163,1604.514,1172.733,1631.861,1173.51,1664.572z"/>
			</g>
			<g>
				<path style="fill:#6B184E;" d="M1148.659,1708.624h-527.5c-18.286,0-33.54-13.098-36.279-31.143
					c-0.864-5.703-1.074-11.553-0.63-17.39c2.695-35.396,30.161-64.387,65.313-68.933c11.406-1.472,22.661-0.434,33.164,2.944
					c-0.586-6.548-0.776-13.171-0.571-19.841c2.681-86.199,72.358-155.112,158.628-156.89c1.138-0.022,2.28-0.034,3.418-0.034
					c74.111,0,138.179,49.785,156.768,120.796c37.48,0.825,71.465,22.432,88.369,55.33c7.993-2.293,16.392-3.284,24.78-2.854
					c39.287,1.953,70.762,34.311,71.655,73.665c0,0.002,0,0.002,0,0.005c0.098,4.377-0.176,8.752-0.806,13
					C1182.311,1695.15,1166.701,1708.624,1148.659,1708.624z M659.572,1615.075c-2.271,0-4.556,0.146-6.856,0.444
					c-23.667,3.062-42.158,22.59-43.975,46.435c-0.303,3.992-0.161,7.981,0.425,11.851c0.889,5.845,6.04,10.254,11.992,10.254h527.5
					c5.967,0,11.133-4.468,12.012-10.391c0.425-2.874,0.61-5.847,0.542-8.838l0,0c-0.591-26.101-22.266-48.394-48.315-49.69
					c-8.667-0.422-17.031,1.24-24.766,4.978c-3.125,1.504-6.743,1.628-9.951,0.325c-3.213-1.301-5.728-3.899-6.919-7.156
					c-11.108-30.273-40.249-50.613-72.519-50.613c-2.192,0-4.351,0.107-6.475,0.283c-6.265,0.54-11.875-3.74-13.076-9.893
					c-12.803-65.779-70.771-112.749-137.9-111.133c-71.978,1.482-132.349,61.187-134.585,133.091
					c-0.41,13.198,1.006,26.162,4.209,38.533c1.328,5.122-0.776,10.52-5.225,13.391c-4.434,2.869-10.22,2.585-14.355-0.74
					C682.262,1618.922,671.183,1615.075,659.572,1615.075z"/>
			</g>
			<g style="opacity:0.3;">
				<path style="fill:#6B184E;" d="M1139.613,1696.341H755.56c62.556-4.299,110.782-19.896,142.142-48.841
					c33.079-30.5,47.449-75.779,40.08-138.252c10.562,14.042,17.931,30.377,21.33,47.735l5.609,28.822l29.272-2.457
					c1.719-0.123,3.275-0.205,4.749-0.205c23.704,0,45.156,14.943,53.303,37.214l12.445,33.939l32.588-15.762
					c4.094-1.965,8.515-2.989,13.223-2.989c0.532,0,1.065,0,1.638,0.041C1126.021,1636.282,1151.935,1657.244,1139.613,1696.341z"/>
			</g>
		</g>
	</g>
</g>
</svg>
